<svg width="640" height="160" viewBox="0 0 640 160" fill="none" xmlns="http://www.w3.org/2000/svg">
  <defs>
    <linearGradient id="background" x1="12" y1="8" x2="148" y2="152" gradientUnits="userSpaceOnUse">
      <stop stop-color="#102343"/>
      <stop offset="1" stop-color="#246BFD"/>
    </linearGradient>
    <linearGradient id="drop" x1="80" y1="62" x2="80" y2="116" gradientUnits="userSpaceOnUse">
      <stop stop-color="#48D6F2"/>
      <stop offset="1" stop-color="#246BFD"/>
    </linearGradient>
  </defs>
  <rect x="8" y="8" width="144" height="144" rx="42" fill="url(#background)"/>
  <path d="M51 38C51 32.4772 55.4772 28 61 28H91L119 56V126C119 131.523 114.523 136 109 136H61C55.4772 136 51 131.523 51 126V38Z" fill="white"/>
  <path d="M91 28V48C91 52.4183 94.5817 56 99 56H119L91 28Z" fill="#BFD8FF"/>
  <path d="M85 68C85 68 63 92.5474 63 107C63 119.15 72.8497 129 85 129C97.1503 129 107 119.15 107 107C107 92.5474 85 68 85 68Z" fill="url(#drop)"/>
  <text x="180" y="93" fill="#102343" font-family="Inter, Arial, sans-serif" font-size="62" font-weight="800" letter-spacing="-2">Plumb</text>
  <text x="365" y="93" fill="#246BFD" font-family="Inter, Arial, sans-serif" font-size="62" font-weight="800" letter-spacing="-2">Flow</text>
  <text x="183" y="125" fill="#6B7890" font-family="Inter, Arial, sans-serif" font-size="15" font-weight="700" letter-spacing="3">BILLING FOR CONTRACTORS</text>
</svg>
